<svg width="173" height="50" viewBox="0 0 173 50" fill="none" xmlns="http://www.w3.org/2000/svg">
<g clip-path="url(#clip0_2_75)">
<path d="M0 0C0 0 0 13.5024 0 25.3538C0 42.0696 19.8998 50 19.8998 50C19.9292 50 39.7995 42.0696 39.7995 25.3538C39.7995 13.5024 39.7995 0 39.7995 0H0Z" fill="#009D4F"/>
<path d="M26.2382 15.566L28.184 13.6203L19.8998 5.36554L11.6156 13.6203L13.5318 15.566L19.8998 9.19809L26.2382 15.566Z" fill="white"/>
<path d="M6.60377 12.4705L2.74174 16.362V20.2241L6.60377 16.3325L16.0377 25.7665L17.954 23.8208L6.60377 12.4705Z" fill="white"/>
<path d="M37.0578 16.362L33.1663 12.4705L15.3007 30.3361C14.033 31.5448 13.237 33.2547 13.237 35.1415C13.237 38.7972 16.2146 41.7748 19.8703 41.7748C23.5259 41.7748 26.533 38.8267 26.533 35.171C26.533 33.3137 25.7665 31.6038 24.5283 30.395L23.7618 29.6285L21.816 31.5448L22.6415 32.3998C23.3491 33.1073 23.7913 34.0802 23.7913 35.171C23.7913 37.3231 22.0224 39.092 19.8703 39.092C17.7182 39.092 15.9493 37.3231 15.9493 35.171C15.9493 34.0802 16.3915 33.1073 17.1285 32.3998L33.1663 16.362L37.0578 20.2535V16.362Z" fill="white"/>
<path d="M56.0142 5.33612H53.0955V22.8479H56.0142V5.33612Z" fill="white"/>
<path d="M72.4646 22.8479V14.77C72.4646 13.0601 71.9929 11.7335 71.079 10.8196C70.1651 9.90566 68.9564 9.46344 67.4823 9.46344C66.5684 9.46344 65.7135 9.69929 64.947 10.171C64.151 10.6427 63.5319 11.2618 63.0896 12.0873V9.66981H60.3184V22.8774H63.0896V15.7134C63.0896 14.4752 63.4434 13.5613 64.151 12.9127C64.8585 12.2641 65.684 11.9693 66.6569 11.9693C68.6616 11.9693 69.6934 13.1781 69.6934 15.625V22.8774H72.4646V22.8479Z" fill="white"/>
<path d="M79.0979 15.7134C79.0979 14.4752 79.4517 13.5613 80.1592 12.9127C80.8668 12.2641 81.6922 11.9693 82.6651 11.9693C84.6698 11.9693 85.7017 13.1781 85.7017 15.625V22.8774H88.4729V14.77C88.4729 13.0601 88.0012 11.7335 87.0873 10.8196C86.1734 9.90566 84.9646 9.46344 83.4906 9.46344C82.5767 9.46344 81.7217 9.69929 80.9552 10.171C80.1887 10.6427 79.5401 11.2618 79.0979 12.0873V9.66981H76.3267V22.8774H79.0979V15.7134Z" fill="white"/>
<path d="M99.0566 21.9635L97.8479 19.9293C97.612 20.342 97.1698 20.5484 96.6097 20.5484C95.6073 20.5484 95.1356 19.8998 95.1356 18.5731V5.39508H92.3644V18.8974C92.3644 20.2831 92.7182 21.3444 93.4552 22.0519C94.1627 22.7595 95.1356 23.1132 96.3149 23.1132C97.4646 23.1132 98.3785 22.73 99.0566 21.9635Z" fill="white"/>
<path d="M110.996 10.6427C110.024 9.84669 108.756 9.46344 107.193 9.46344C105.159 9.46344 103.331 10.112 101.739 11.3797L102.978 13.1191C104.304 12.2347 105.572 11.7924 106.81 11.7924C108.756 11.7924 109.729 12.6769 109.729 14.4163V14.9174H106.132C104.511 14.9174 103.184 15.2417 102.241 15.8903C101.268 16.5389 100.796 17.5118 100.796 18.809C100.796 20.1061 101.238 21.138 102.152 21.934C103.066 22.7005 104.186 23.0837 105.572 23.0837C107.4 23.0837 108.874 22.4351 109.965 21.1085V22.8774H112.5V14.3573C112.471 12.6474 111.969 11.4387 110.996 10.6427ZM109.67 17.954C109.67 18.809 109.346 19.4575 108.667 19.9587C108.019 20.4599 107.223 20.6958 106.338 20.6958C105.454 20.6958 104.776 20.5189 104.275 20.1946C103.774 19.8408 103.538 19.3691 103.538 18.7205C103.538 17.4528 104.54 16.8337 106.545 16.8337H109.67V17.954Z" fill="white"/>
<path d="M123.673 9.46344C122.759 9.46344 121.905 9.69929 121.138 10.171C120.371 10.6427 119.723 11.2618 119.281 12.0873V9.66981H116.509V22.8774H119.281V15.7134C119.281 14.4752 119.634 13.5613 120.342 12.9127C121.05 12.2641 121.875 11.9693 122.848 11.9693C124.853 11.9693 125.884 13.1781 125.884 15.625V22.8774H128.656V14.77C128.656 13.0601 128.184 11.7335 127.27 10.8196C126.356 9.90566 125.177 9.46344 123.673 9.46344Z" fill="white"/>
<path d="M145.136 22.8479V4.27478H142.364V11.6745C141.303 10.2005 139.859 9.43398 138.119 9.43398C136.38 9.43398 134.847 10.0531 133.579 11.2618C132.311 12.5 131.663 14.1215 131.663 16.1852C131.663 18.2488 132.282 19.8998 133.52 21.138C134.758 22.4057 136.203 23.0248 137.883 23.0248C139.859 23.0248 141.362 22.2878 142.364 20.8432V22.8184L145.136 22.8479ZM141.244 19.3986C140.478 20.1946 139.564 20.6073 138.473 20.6073C137.382 20.6073 136.439 20.2241 135.613 19.4281C134.788 18.6321 134.404 17.6003 134.404 16.3326C134.404 15.0649 134.817 14.0036 135.584 13.1781C136.35 12.3526 137.323 11.9104 138.443 11.9104C139.564 11.9104 140.478 12.3231 141.244 13.1781C142.011 14.033 142.394 15.0649 142.394 16.3326C142.394 17.5708 142.011 18.6026 141.244 19.3986Z" fill="white"/>
<path d="M154.805 23.0542C157.075 23.0542 158.933 22.3172 160.348 20.8432L158.756 19.1038C157.901 20.1356 156.633 20.6663 154.982 20.6663C153.95 20.6663 153.007 20.3715 152.211 19.7818C151.415 19.1922 150.973 18.4257 150.884 17.4528H161.232V15.5366C161.232 13.6203 160.613 12.1462 159.346 11.0554C158.078 9.96462 156.574 9.43396 154.776 9.43396C152.978 9.43396 151.415 10.0531 150.088 11.2618C148.762 12.5 148.113 14.1509 148.113 16.2146C148.113 18.2783 148.762 19.9587 150.059 21.1675C151.356 22.4351 152.948 23.0542 154.805 23.0542ZM152.123 12.7653C152.948 12.1462 153.833 11.8219 154.864 11.8219C155.896 11.8219 156.722 12.1167 157.429 12.7064C158.137 13.296 158.461 14.1509 158.461 15.2712H150.884C150.914 14.2394 151.297 13.3844 152.123 12.7653Z" fill="white"/>
<path d="M164.8 18.5142C164.8 19.8998 165.212 21.0201 166.067 21.8161C166.893 22.6415 167.925 23.0543 169.104 23.0543C170.283 23.0543 171.374 22.6121 172.347 21.7276L171.197 19.7819C170.666 20.3715 170.077 20.6368 169.487 20.6368C168.897 20.6368 168.426 20.4599 168.101 20.0767C167.777 19.6934 167.6 19.1923 167.6 18.5731V11.8809H171.197V9.64037H167.6V5.33612H164.8V9.64037H163.149V11.8809H164.8V18.5142Z" fill="white"/>
<path d="M55.513 28.1545C55.1002 28.1545 54.6875 28.2724 54.3043 28.4788C53.921 28.6851 53.6262 29.0094 53.4198 29.3927C53.2135 29.7759 53.0955 30.2476 53.0955 30.7488V31.3679H52.1521V32.3703H53.0955V39.092H54.2748V32.3703H56.1026V31.3679H54.2748V30.6309C54.2748 30.2182 54.3927 29.8644 54.658 29.6285C54.9234 29.3632 55.2182 29.2453 55.5719 29.2453C55.8668 29.2453 56.191 29.3337 56.5153 29.5106L56.6333 29.5696L56.9576 28.5672L56.8691 28.5083C56.4564 28.2724 55.9847 28.1545 55.513 28.1545Z" fill="white"/>
<path d="M61.0259 37.559L58.579 31.4269L58.5495 31.3384H57.2818L60.4363 38.8856L60.1415 39.5932C59.9941 39.9469 59.7877 40.2417 59.5519 40.4186C59.316 40.5955 59.0802 40.684 58.7854 40.684C58.4316 40.684 58.1073 40.566 57.783 40.3597L57.6651 40.2712L57.1049 41.2146L57.1934 41.2736C57.6651 41.6274 58.1958 41.8042 58.8149 41.8042C59.316 41.8042 59.7877 41.6568 60.171 41.3325C60.5542 41.0377 60.8785 40.566 61.1144 39.9764L64.6226 31.2795H63.3844L61.0259 37.559Z" fill="white"/>
<path d="M77.5354 31.3679H76.0613L72.1993 35.2594V28.2429H71.0201V39.0625H72.1993V36.8219L73.7618 35.2594L76.3561 39.0625H77.8007L74.5873 34.4045L77.5354 31.3679Z" fill="white"/>
<path d="M82.6946 31.3384C81.987 31.3384 81.309 31.5153 80.7488 31.8396C80.1887 32.1639 79.717 32.6356 79.3927 33.2252C79.0684 33.8149 78.8915 34.4929 78.8915 35.2299C78.8915 35.967 79.0684 36.645 79.3927 37.2347C79.717 37.8243 80.1887 38.296 80.7488 38.6203C81.3384 38.9446 81.987 39.1215 82.7241 39.1215C83.3432 39.1215 83.9328 39.0035 84.434 38.7972C84.9646 38.5908 85.4068 38.2665 85.7901 37.8538L85.8785 37.7653L85.171 37.0578L85.0825 37.1462C84.7877 37.441 84.4634 37.6769 84.0802 37.8538C83.6969 38.0307 83.2547 38.0896 82.8125 38.0896C82.0755 38.0896 81.4564 37.8538 80.9552 37.3821C80.4835 36.9399 80.2182 36.3502 80.1297 35.6722H86.3502V35.5542C86.4092 34.2866 86.1144 33.2547 85.4658 32.5177C84.8172 31.7217 83.8738 31.3384 82.6946 31.3384ZM80.1002 34.6698C80.1887 33.9917 80.454 33.4316 80.9257 33.0189C81.3974 32.5766 82.0165 32.3408 82.7241 32.3408C83.4611 32.3408 84.0507 32.5766 84.4929 32.9894C84.9057 33.4021 85.171 33.9623 85.23 34.6403C85.2005 34.6698 80.1002 34.6698 80.1002 34.6698Z" fill="white"/>
<path d="M92.895 35.0531C92.5708 34.9057 92.1285 34.7582 91.6274 34.6108C91.2146 34.4929 90.8903 34.375 90.6545 34.2866C90.4481 34.1981 90.2417 34.0802 90.0943 33.9328C89.9469 33.7854 89.888 33.6085 89.888 33.4021C89.888 33.0778 90.0059 32.842 90.2712 32.6651C90.5366 32.4882 90.8903 32.3998 91.362 32.3998C91.6863 32.3998 92.0401 32.4587 92.3644 32.5472C92.6887 32.6356 93.013 32.783 93.2783 32.9599L93.3962 33.0189L93.8679 32.0755L93.7795 32.0165C93.4552 31.8101 93.0719 31.6332 92.6887 31.5448C92.2759 31.4269 91.8632 31.3679 91.421 31.3679C90.684 31.3679 90.0354 31.5448 89.5342 31.8986C89.0035 32.2524 88.7382 32.783 88.7382 33.4906C88.7382 33.9623 88.8561 34.3455 89.092 34.6108C89.3278 34.9057 89.5932 35.112 89.9469 35.2594C90.2712 35.4068 90.684 35.5542 91.1851 35.7016C91.6274 35.8491 91.9517 35.9375 92.1875 36.0554C92.4233 36.1439 92.6002 36.2913 92.7476 36.4387C92.895 36.5861 92.954 36.7924 92.954 37.0283C92.954 37.3821 92.8066 37.6474 92.5413 37.8538C92.2465 38.0601 91.8632 38.1486 91.362 38.1486C90.9198 38.1486 90.4776 38.0601 90.0649 37.9127C89.6226 37.7358 89.2689 37.5295 88.9446 37.2347L88.8266 37.1462L88.3255 38.0307L88.3844 38.0896C88.7382 38.4434 89.1804 38.7087 89.7111 38.8856C90.2123 39.0625 90.7724 39.1509 91.3325 39.1509C92.1285 39.1509 92.8066 38.974 93.3373 38.5908C93.8974 38.2075 94.1627 37.6474 94.1627 36.9399C94.1627 36.4682 94.0448 36.0554 93.7795 35.7606C93.5141 35.4363 93.2193 35.2005 92.895 35.0531Z" fill="white"/>
<path d="M102.978 31.3679H101.504L97.671 35.2594V28.2429H96.4623V39.0625H97.671V36.8219L99.204 35.2594L101.798 39.0625H103.243L100.059 34.4045L102.978 31.3679Z" fill="white"/>
<path d="M110.142 31.8396C109.552 31.5153 108.874 31.3384 108.137 31.3384C107.4 31.3384 106.722 31.5153 106.132 31.8396C105.542 32.1639 105.071 32.6356 104.746 33.2252C104.422 33.8149 104.245 34.4929 104.245 35.2299C104.245 35.967 104.422 36.645 104.746 37.2347C105.071 37.8243 105.542 38.296 106.132 38.6203C106.722 38.9446 107.4 39.1215 108.137 39.1215C108.874 39.1215 109.552 38.9446 110.142 38.6203C110.731 38.296 111.203 37.8243 111.527 37.2347C111.851 36.645 112.028 35.967 112.028 35.2299C112.028 34.4929 111.851 33.8149 111.527 33.2252C111.203 32.6061 110.731 32.1639 110.142 31.8396ZM110.495 36.704C110.259 37.1167 109.935 37.4705 109.552 37.7064C109.169 37.9422 108.667 38.0601 108.166 38.0601C107.665 38.0601 107.164 37.9422 106.781 37.7064C106.368 37.4705 106.044 37.1462 105.837 36.704C105.601 36.2913 105.484 35.7901 105.484 35.2299C105.484 34.6698 105.601 34.1981 105.837 33.7559C106.073 33.3432 106.397 32.9894 106.781 32.7535C107.193 32.5177 107.665 32.3998 108.166 32.3998C108.667 32.3998 109.169 32.5177 109.552 32.7535C109.965 32.9894 110.289 33.3137 110.495 33.7559C110.731 34.1686 110.849 34.6698 110.849 35.2299C110.849 35.7901 110.731 36.2618 110.495 36.704Z" fill="white"/>
<path d="M123.88 31.3384C123.113 31.3384 122.465 31.5153 121.934 31.8691C121.492 32.1639 121.138 32.5766 120.902 33.1073C120.725 32.6061 120.43 32.1934 120.018 31.8986C119.517 31.5448 118.897 31.3384 118.16 31.3384C117.423 31.3384 116.804 31.5153 116.303 31.8101C115.92 32.046 115.625 32.3408 115.389 32.7535V31.3679H114.21V39.0625H115.389V35.2594C115.389 34.434 115.625 33.7264 116.038 33.2252C116.48 32.7241 117.07 32.4587 117.836 32.4292C118.485 32.4292 118.986 32.6061 119.34 32.9894C119.693 33.3726 119.87 33.9033 119.87 34.5519V39.033H121.079V35.2299C121.079 34.4045 121.285 33.6969 121.728 33.1957C122.17 32.6946 122.759 32.4292 123.496 32.3998C124.145 32.3998 124.646 32.5766 125 32.9599C125.354 33.3432 125.531 33.8738 125.531 34.5224V39.0035H126.739V34.2866C126.739 33.3432 126.474 32.6061 125.973 32.0755C125.501 31.6038 124.794 31.3384 123.88 31.3384Z" fill="white"/>
<path d="M139.151 31.3384C138.384 31.3384 137.736 31.5153 137.205 31.8691C136.763 32.1639 136.409 32.5766 136.173 33.1073C135.996 32.6061 135.702 32.1934 135.289 31.8986C134.788 31.5448 134.169 31.3384 133.432 31.3384C132.695 31.3384 132.075 31.5153 131.574 31.8101C131.191 32.046 130.896 32.3408 130.66 32.7535V31.3679H129.481V39.0625H130.66V35.2594C130.66 34.434 130.896 33.7264 131.309 33.2252C131.751 32.7241 132.341 32.4587 133.107 32.4292C133.756 32.4292 134.257 32.6061 134.611 32.9894C134.965 33.3726 135.142 33.9033 135.142 34.5519V39.033H136.35V35.2299C136.35 34.4045 136.557 33.6969 136.999 33.1957C137.441 32.6946 138.031 32.4292 138.768 32.3998C139.416 32.3998 139.917 32.5766 140.271 32.9599C140.625 33.3432 140.802 33.8738 140.802 34.5224V39.0035H142.011V34.2866C142.011 33.3432 141.745 32.6061 141.244 32.0755C140.772 31.6038 140.035 31.3384 139.151 31.3384Z" fill="white"/>
<path d="M150.354 35.1415C150.354 35.967 150.118 36.6745 149.705 37.1757C149.263 37.6769 148.673 37.9422 147.907 37.9422C147.258 37.9422 146.757 37.7653 146.403 37.3821C146.05 36.9988 145.843 36.4976 145.843 35.8196V31.3384H144.634V36.0554C144.634 36.9988 144.9 37.7358 145.401 38.2665C145.932 38.7972 146.639 39.092 147.553 39.092C148.261 39.092 148.88 38.9151 149.381 38.5908C149.764 38.3549 150.059 38.0307 150.295 37.6474V39.0625H151.504V31.3679H150.354V35.1415Z" fill="white"/>
<path d="M160.82 32.1344C160.289 31.6038 159.552 31.309 158.638 31.309C157.901 31.309 157.282 31.4858 156.751 31.7807C156.368 32.0165 156.044 32.3113 155.808 32.7241V31.3384H154.629V39.033H155.808V34.9057C155.867 34.1391 156.132 33.5495 156.574 33.1073C157.017 32.6651 157.606 32.4292 158.343 32.4292C158.992 32.4292 159.522 32.6061 159.876 32.9894C160.23 33.3726 160.436 33.9033 160.436 34.5519V39.033H161.645V34.316C161.645 33.4316 161.35 32.6946 160.82 32.1344Z" fill="white"/>
<path d="M167.541 31.3384C166.834 31.3384 166.156 31.5153 165.596 31.8396C165.035 32.1639 164.564 32.6356 164.239 33.2252C163.915 33.8149 163.738 34.4929 163.738 35.2299C163.738 35.967 163.915 36.645 164.239 37.2347C164.564 37.8243 165.035 38.296 165.596 38.6203C166.185 38.9446 166.834 39.1215 167.571 39.1215C168.19 39.1215 168.779 39.0035 169.281 38.7972C169.811 38.5908 170.254 38.2665 170.637 37.8538L170.725 37.7653L170.018 37.0578L169.929 37.1462C169.634 37.441 169.31 37.6769 168.927 37.8538C168.544 38.0307 168.101 38.0896 167.659 38.0896C166.922 38.0896 166.303 37.8538 165.802 37.3821C165.33 36.9399 165.065 36.3502 164.976 35.6722H171.197V35.5542C171.256 34.2866 170.961 33.2547 170.313 32.5177C169.664 31.7217 168.721 31.3384 167.541 31.3384ZM164.947 34.6698C165.035 33.9917 165.301 33.4316 165.772 33.0189C166.244 32.5766 166.863 32.3408 167.571 32.3408C168.308 32.3408 168.897 32.5766 169.34 32.9894C169.752 33.4021 170.018 33.9623 170.077 34.6403C170.047 34.6698 164.947 34.6698 164.947 34.6698Z" fill="white"/>
<path d="M68.5731 37.7358C68.3373 37.9127 68.1309 38.0012 67.9245 38.0012C67.6592 38.0012 67.3054 37.9127 67.3054 37.1757V28.2429H66.0967V37.2641C66.0967 37.8538 66.2441 38.296 66.5389 38.6203C66.8337 38.9446 67.217 39.1215 67.6887 39.1215C68.1014 39.1215 68.5142 38.9446 68.9859 38.6203L69.0448 38.5613V38.5318L68.5731 37.7358Z" fill="white"/>
</g>
<defs>
<clipPath id="clip0_2_75">
<rect width="172.317" height="50" fill="white"/>
</clipPath>
</defs>
</svg>
