<svg width="250" height="88" viewBox="0 0 250 88" fill="none" xmlns="http://www.w3.org/2000/svg">
<path d="M0 0V44.6129C0 74.0716 34.9822 87.9512 34.9822 87.9512C34.9822 87.9512 69.9644 73.93 69.9644 44.6129V0H0Z" fill="#009D4F"/>
<path d="M46.1708 27.3343L49.5699 23.9352L34.9822 9.48911L20.3944 24.0768L23.7935 27.3343L34.9822 16.2873L46.1708 27.3343Z" fill="white"/>
<path d="M11.6135 21.9524L4.81537 28.7505V35.5487L11.6135 28.7505L28.184 45.321L31.5831 41.922L11.6135 21.9524Z" fill="white"/>
<path d="M65.2906 28.7505L58.4925 21.9524L26.9094 53.3939C22.2356 57.7843 22.094 65.2906 26.4845 69.9644C30.875 74.6381 38.3813 74.7797 43.055 70.3893C47.7287 65.9988 47.8704 58.4925 43.4799 53.8188C43.3383 53.6771 43.1966 53.5355 43.1966 53.5355L41.7803 52.1192L38.5229 55.5183L39.9392 56.9346C42.6301 59.6255 42.6301 64.016 39.9392 66.7069C37.2482 69.3979 32.8578 69.3979 30.1668 66.7069C28.8922 65.4323 28.184 63.7327 28.184 61.8916C28.184 60.0504 28.8922 58.2092 30.3084 56.9346L58.6341 28.7505L65.4323 35.5487L65.2906 28.7505Z" fill="white"/>
<path d="M93.4747 39.9392V16.2872H97.4403V26.4845H109.195V16.2872H113.303V39.9392H109.195V30.3084H97.4403V39.9392H93.4747Z" fill="black"/>
<path d="M133.272 39.7976H129.873V37.3899C128.457 39.231 126.191 40.2224 123.925 40.0808C122.225 40.0808 120.526 39.5143 119.251 38.5229C117.976 37.5315 117.41 35.832 117.41 34.2741C117.268 32.7161 118.118 31.1582 119.393 30.3085C120.951 29.3171 122.792 28.8922 124.775 29.0338H129.732V28.3257C129.732 25.918 128.457 24.785 125.766 24.785C123.925 24.785 122.084 25.4931 120.667 26.4845L118.685 24.0768C120.809 22.3773 123.358 21.5275 126.049 21.5275C127.89 21.3859 129.732 21.9524 131.289 23.0854C132.706 24.3601 133.414 26.2012 133.272 28.184V39.7976ZM129.448 33.141V31.5831H125.199C122.508 31.5831 121.092 32.4329 121.092 34.1324C121.092 34.9822 121.375 35.6903 122.084 36.1152C122.933 36.6817 123.925 36.8234 124.916 36.8234C126.049 36.8234 127.182 36.5401 128.032 35.832C129.023 35.2655 129.59 34.1324 129.448 33.141Z" fill="black"/>
<path d="M141.912 30.0252V39.7976H138.088V21.8108H141.912V25.0682C142.478 23.9352 143.328 23.0854 144.319 22.5189C145.452 21.9524 146.585 21.5275 147.86 21.5275C150.409 21.2442 152.675 22.8022 153.667 25.0682C155.225 22.8022 157.632 21.5275 160.323 21.5275C162.164 21.3859 163.864 22.094 165.28 23.3687C166.555 24.7849 167.263 26.7677 167.121 28.7505V39.7976H163.297V29.8836C163.297 26.6261 161.881 24.9266 159.19 24.9266C157.916 24.9266 156.783 25.3515 155.791 26.2012C154.8 27.1926 154.233 28.4673 154.375 29.7419V39.7976H150.551V29.8836C150.693 28.6089 150.409 27.1926 149.701 26.0596C148.993 25.2098 148.002 24.7849 146.869 24.9266C145.594 24.9266 144.319 25.3515 143.469 26.2012C142.336 27.1926 141.77 28.6089 141.912 30.0252Z" fill="black"/>
<path d="M186.524 39.7976H183.125V37.3899C181.709 39.231 179.443 40.2224 177.177 40.0808C175.477 40.0808 173.778 39.5143 172.503 38.5229C171.229 37.5315 170.662 35.832 170.662 34.2741C170.52 32.7161 171.37 31.1582 172.645 30.3085C174.203 29.3171 176.044 28.8922 178.027 29.0338H182.842V28.3257C182.842 25.918 181.568 24.785 178.877 24.785C177.035 24.9266 175.194 25.4931 173.636 26.6261L171.937 24.0768C174.061 22.3773 176.611 21.3859 179.443 21.5275C181.284 21.3859 183.125 21.9524 184.683 23.0854C186.1 24.3601 186.808 26.2012 186.666 28.184L186.524 39.7976ZM182.701 33.141V31.5831H178.452C175.761 31.5831 174.344 32.4329 174.344 34.1324C174.344 34.9822 174.628 35.6903 175.336 36.1152C176.186 36.6817 177.177 36.8234 178.168 36.8234C179.301 36.8234 180.434 36.5401 181.284 35.832C182.276 35.2655 182.701 34.1324 182.701 33.141Z" fill="black"/>
<path d="M200.687 25.3515C199.129 25.2099 197.43 25.918 196.438 27.1927C195.447 28.6089 194.881 30.3085 195.022 32.1497V39.9392H191.198V21.8108H195.022V25.4931C195.589 24.3601 196.438 23.3687 197.571 22.6606C198.563 21.9524 199.696 21.5275 200.971 21.5275V25.3515H200.687Z" fill="black"/>
<path d="M104.38 68.8314H102.114L97.7235 62.3165L95.0326 65.149V68.8314H93.1914V50.7029H95.0326V62.5997L101.689 55.9432H103.955L99.1398 60.9002L104.38 68.8314Z" fill="black"/>
<path d="M116.985 68.8314H115.144V66.9902C114.719 67.5567 114.011 68.1232 113.303 68.4065C112.453 68.8314 111.461 68.973 110.47 68.973C109.62 68.973 108.912 68.8314 108.204 68.5481C106.929 67.9816 106.08 66.5653 106.08 65.149C106.08 64.1576 106.504 63.1662 107.354 62.4581C108.346 61.7499 109.62 61.4667 110.895 61.4667H115.002V60.6169C115.002 59.7671 114.719 58.9174 114.152 58.3509C113.444 57.7843 112.594 57.5011 111.603 57.5011C110.187 57.5011 108.771 58.0676 107.637 59.059H107.496L106.646 57.7843H106.788C107.496 57.2178 108.346 56.793 109.195 56.5097C110.045 56.2264 110.895 56.0848 111.886 56.0848C113.161 55.9432 114.436 56.3681 115.427 57.2178C116.277 58.0676 116.843 59.2006 116.702 60.4753L116.985 68.8314ZM115.144 62.7413H111.178C110.328 62.7413 109.479 62.883 108.771 63.3079C108.204 63.5911 107.921 64.2992 107.921 64.8658C107.921 65.5739 108.204 66.1404 108.771 66.5653C109.337 66.9902 110.187 67.2734 110.895 67.2734C111.886 67.2734 112.878 66.9902 113.728 66.5653C114.436 66.1404 115.002 65.2906 115.285 64.4409L115.144 62.7413Z" fill="black"/>
<path d="M127.324 67.9816C126.474 68.5481 125.483 68.8314 124.491 68.973C123.642 68.973 122.792 68.6897 122.084 67.9816C121.517 67.2735 121.092 66.2821 121.234 65.2907V57.926H119.393V56.5097H121.234V53.2523H123.075V56.5097H127.182V57.926H123.075V65.0074C123.075 66.5653 123.642 67.2735 124.633 67.2735C125.341 67.2735 125.908 66.9902 126.474 66.7069L127.324 67.9816Z" fill="black"/>
<path d="M141.203 63.0246H130.723C130.865 64.1576 131.289 65.2907 132.139 66.1404C132.989 66.9902 134.122 67.4151 135.255 67.2735C135.963 67.2735 136.813 67.1318 137.521 66.8486C138.229 66.5653 138.796 66.1404 139.221 65.7155V65.5739L140.354 66.7069V66.8486C139.787 67.5567 138.937 67.9816 138.088 68.4065C137.238 68.8314 136.246 68.973 135.255 68.973C134.122 68.973 132.989 68.6897 131.998 68.1232C131.006 67.5567 130.298 66.8486 129.732 65.8572C129.165 64.8658 128.882 63.7327 128.882 62.5997C128.882 61.4667 129.165 60.3337 129.732 59.3423C130.298 58.3509 131.006 57.6427 131.998 57.0762C132.989 56.5097 134.122 56.2264 135.255 56.2264C136.955 56.0848 138.654 56.793 139.787 58.0676C140.779 59.3423 141.345 61.1834 141.203 63.0246ZM130.723 61.6083H139.504C139.504 60.4753 139.079 59.4839 138.229 58.6341C137.38 57.926 136.388 57.5011 135.255 57.5011C134.122 57.5011 132.989 57.926 132.139 58.6341C131.289 59.4839 130.865 60.4753 130.723 61.6083Z" fill="black"/>
<path d="M156.783 50.7029V68.6897H154.941V66.1404C154.516 66.8486 153.808 67.5567 153.1 67.9816C152.109 68.5481 151.117 68.8314 149.984 68.8314C148.851 68.8314 147.718 68.5481 146.727 67.9816C145.736 67.4151 145.027 66.5653 144.461 65.7155C143.894 64.7241 143.611 63.5911 143.611 62.3165C143.611 61.1834 143.894 60.0504 144.461 58.9174C145.027 57.926 145.736 57.2178 146.727 56.6513C147.718 56.0848 148.851 55.8016 149.843 55.8016C150.976 55.8016 151.967 56.0848 152.959 56.6513C153.667 57.0762 154.375 57.7844 154.8 58.4925V50.7029H156.783ZM154.941 62.4581C154.941 61.6083 154.8 60.7586 154.375 59.9088C153.95 59.2006 153.383 58.6341 152.675 58.2092C151.967 57.7844 151.117 57.5011 150.268 57.5011C149.418 57.5011 148.568 57.6427 147.86 58.2092C147.152 58.6341 146.585 59.2006 146.16 59.9088C145.736 60.6169 145.594 61.6083 145.594 62.4581C145.594 63.3079 145.736 64.1576 146.16 65.0074C146.585 65.7155 147.152 66.2821 147.86 66.7069C149.418 67.5567 151.117 67.5567 152.675 66.7069C153.383 66.2821 153.95 65.7155 154.375 65.0074C154.8 64.1576 154.941 63.3079 154.941 62.4581Z" fill="black"/>
<path d="M166.838 55.9432V57.6427H166.697C165.564 57.6427 164.43 58.0676 163.581 58.7758C162.731 59.6255 162.306 60.7586 162.306 61.8916V68.6897H160.465V55.9432H162.306V58.4925C162.731 57.7844 163.297 57.0762 163.864 56.6513C164.714 56.0848 165.705 55.8016 166.697 55.8016L166.838 55.9432Z" fill="black"/>
<path d="M179.443 68.8314H177.602V66.9902C177.177 67.5567 176.469 68.1232 175.761 68.4065C174.911 68.8314 173.92 68.973 172.928 68.973C172.078 68.973 171.37 68.8314 170.662 68.5481C169.387 67.9816 168.538 66.5653 168.538 65.149C168.538 64.1576 168.963 63.1662 169.954 62.4581C170.945 61.7499 172.22 61.4667 173.495 61.4667H177.602V60.6169C177.602 59.7671 177.319 58.9174 176.752 58.3509C176.044 57.7843 175.194 57.5011 174.203 57.5011C172.787 57.5011 171.37 58.0676 170.237 59.059H170.096L169.246 57.7843H169.387C170.096 57.2178 170.945 56.793 171.795 56.5097C172.645 56.2264 173.495 56.0848 174.486 56.0848C175.761 55.9432 177.035 56.3681 178.027 57.2178C178.877 58.0676 179.443 59.2006 179.301 60.4753L179.443 68.8314ZM177.602 62.7413H173.636C172.787 62.7413 171.937 62.883 171.229 63.3079C170.662 63.5911 170.379 64.2992 170.379 64.8658C170.379 65.5739 170.662 66.1404 171.229 66.5653C171.795 66.9902 172.645 67.2734 173.353 67.2734C174.344 67.2734 175.336 66.9902 176.186 66.5653C176.894 65.9988 177.46 65.2906 177.744 64.4409L177.602 62.7413Z" fill="black"/>
<path d="M187.799 67.9816C187.233 68.4065 186.383 68.6897 185.675 68.8314C184.967 68.8314 184.258 68.5481 183.834 67.9816C183.267 67.4151 183.125 66.5653 183.125 65.7155V50.7029H184.967V65.5739C184.967 66.5653 185.25 66.9902 186.1 66.9902C186.525 66.9902 186.808 66.8486 187.233 66.5653L187.799 67.9816Z" fill="black"/>
<path d="M199.554 65.149C199.696 66.2821 199.129 67.2735 198.28 67.9816C197.288 68.6897 196.155 68.973 195.022 68.973C194.172 68.973 193.181 68.8314 192.331 68.5481C191.481 68.2649 190.773 67.84 190.207 67.2735L190.915 65.8572L191.057 65.9988C192.19 66.9902 193.606 67.5567 195.164 67.5567C195.872 67.5567 196.58 67.4151 197.147 66.9902C197.571 66.7069 197.855 66.1404 197.855 65.5739C197.855 65.149 197.713 64.7242 197.43 64.4409C197.147 64.1576 196.863 63.8744 196.438 63.7328C196.014 63.5911 195.447 63.4495 194.739 63.1662C194.031 63.0246 193.323 62.7414 192.615 62.4581C192.048 62.1748 191.623 61.8916 191.198 61.3251C190.773 60.7586 190.632 60.192 190.632 59.4839C190.632 58.4925 191.057 57.5011 191.906 56.9346C192.898 56.3681 193.889 56.0848 195.022 56.0848C195.73 56.0848 196.438 56.2265 197.147 56.3681C197.855 56.5097 198.421 56.793 198.988 57.2179H199.129L198.421 58.6341H198.28C197.855 58.3509 197.288 58.0676 196.722 57.926C196.155 57.7844 195.589 57.6427 195.022 57.6427C194.314 57.6427 193.748 57.7844 193.181 58.0676C192.756 58.3509 192.473 58.9174 192.473 59.3423C192.473 59.7672 192.615 60.0504 192.898 60.3337C193.181 60.6169 193.464 60.7586 193.889 61.0418C194.456 61.3251 195.022 61.4667 195.447 61.6083C196.155 61.75 196.863 62.0332 197.572 62.3165C198.138 62.5997 198.563 62.883 198.988 63.4495C199.413 63.8744 199.554 64.5825 199.554 65.149Z" fill="black"/>
<path d="M214 68.8314H211.734L207.344 62.3165L204.653 65.149V68.8314H202.812V50.7029H204.653V62.5997L211.309 55.9432H213.576L208.76 60.9002L214 68.8314Z" fill="black"/>
<path d="M228.305 62.3165C228.305 63.4495 228.022 64.5825 227.455 65.7155C226.889 66.7069 226.039 67.4151 225.189 67.9816C223.065 69.1146 220.657 69.1146 218.533 67.9816C217.541 67.4151 216.833 66.7069 216.266 65.7155C215.7 64.7242 215.417 63.5911 215.417 62.3165C215.417 61.1834 215.7 60.0504 216.266 59.059C216.833 58.0676 217.541 57.3595 218.533 56.793C220.657 55.6599 223.065 55.6599 225.189 56.793C226.18 57.3595 226.889 58.0676 227.455 59.059C228.022 60.0504 228.305 61.1834 228.305 62.3165ZM226.464 62.3165C226.464 61.4667 226.322 60.6169 225.897 59.7672C225.472 59.059 224.906 58.4925 224.198 58.0676C223.49 57.6427 222.64 57.5011 221.79 57.5011C220.94 57.5011 220.09 57.6427 219.382 58.0676C218.674 58.4925 218.108 59.059 217.824 59.7672C217.399 60.4753 217.258 61.4667 217.258 62.3165C217.258 63.1662 217.399 64.016 217.824 64.8658C218.249 65.5739 218.816 66.2821 219.524 66.7069C220.232 67.1318 221.082 67.2735 221.932 67.2735C222.781 67.2735 223.631 67.1318 224.339 66.7069C225.047 66.2821 225.614 65.7155 226.039 65.0074C226.322 64.1576 226.605 63.3079 226.464 62.3165Z" fill="black"/>
<path d="M236.378 67.9816C235.811 68.4065 234.961 68.6897 234.253 68.8314C233.545 68.8314 232.837 68.5481 232.412 67.9816C231.846 67.4151 231.704 66.5653 231.704 65.7155V50.7029H233.545V65.5739C233.545 66.5653 233.97 66.9902 234.678 66.9902C235.103 66.9902 235.386 66.8486 235.811 66.5653L236.378 67.9816Z" fill="black"/>
<path d="M249.974 63.0246H239.493C239.635 64.1576 240.06 65.2907 240.91 66.1404C241.76 66.9902 242.893 67.4151 244.026 67.2735C244.734 67.2735 245.584 67.1318 246.15 66.8486C246.858 66.5653 247.425 66.1404 247.85 65.7155L247.991 65.5739L249.124 66.7069L248.983 66.8486C248.416 67.5567 247.566 67.9816 246.717 68.4065C245.867 68.8314 244.875 68.973 243.884 68.973C242.751 68.973 241.618 68.6897 240.626 68.1232C239.635 67.5567 238.927 66.8486 238.36 65.8572C237.794 64.8658 237.511 63.7327 237.511 62.5997C237.511 61.4667 237.794 60.3337 238.36 59.3423C238.927 58.3509 239.635 57.6427 240.626 57.0762C241.618 56.5097 242.751 56.2264 243.884 56.2264C245.583 56.0848 247.283 56.793 248.416 58.0676C249.691 59.3423 250.116 61.1834 249.974 63.0246ZM239.493 61.6083H248.274C248.274 60.4753 247.708 59.4839 247 58.6341C246.15 57.926 245.159 57.5011 244.026 57.5011C242.893 57.5011 241.76 57.926 240.91 58.6341C240.06 59.4839 239.635 60.4753 239.493 61.6083Z" fill="black"/>
</svg>
